HIERARCHY
ROOT Hips
{
	OFFSET -0.001795 -0.223333 0.028219
	CHANNELS 6 Xposition Yposition Zposition Zrotation Yrotation Xrotation 
	JOINT LeftUpLeg
	{
		OFFSET 0.069520 -0.091406 -0.006815
		CHANNELS 3 Zrotation Yrotation Xrotation
		JOINT LeftLeg
		{
			OFFSET 0.034277 -0.375199 -0.004496
			CHANNELS 3 Zrotation Yrotation Xrotation
			JOINT LeftFoot
			{
				OFFSET -0.013596 -0.397961 -0.043693
				CHANNELS 3 Zrotation Yrotation Xrotation
				JOINT LeftToe
				{
					OFFSET 0.026358 -0.055791 0.119288
					CHANNELS 3 Zrotation Yrotation Xrotation
					End Site
					{
						OFFSET 0.000000 0.000000 0.000000
					}
				}
			}
		}
	}
	JOINT RightUpLeg
	{
		OFFSET -0.067670 -0.090522 -0.004320
		CHANNELS 3 Zrotation Yrotation Xrotation
		JOINT RightLeg
		{
			OFFSET -0.038290 -0.382569 -0.008850
			CHANNELS 3 Zrotation Yrotation Xrotation
			JOINT RightFoot
			{
				OFFSET 0.015774 -0.398415 -0.042312
				CHANNELS 3 Zrotation Yrotation Xrotation
				JOINT RightToe
				{
					OFFSET -0.025372 -0.048144 0.123348
					CHANNELS 3 Zrotation Yrotation Xrotation
					End Site
					{
						OFFSET 0.000000 0.000000 0.000000
					}
				}
			}
		}
	}
	JOINT Spine
	{
		OFFSET -0.002533 0.108963 -0.026696
		CHANNELS 3 Zrotation Yrotation Xrotation
		JOINT Spine1
		{
			OFFSET 0.005487 0.135180 0.001092
			CHANNELS 3 Zrotation Yrotation Xrotation
			JOINT Spine2
			{
				OFFSET 0.001457 0.052922 0.025425
				CHANNELS 3 Zrotation Yrotation Xrotation
				JOINT Neck
				{
					OFFSET -0.002778 0.213870 -0.042857
					CHANNELS 3 Zrotation Yrotation Xrotation
					JOINT Head
					{
						OFFSET 0.005152 0.064970 0.051349
						CHANNELS 3 Zrotation Yrotation Xrotation
						End Site
						{
							OFFSET 0.000000 0.000000 0.000000
						}
					}
				}
				JOINT LeftShoulder
				{
					OFFSET 0.078845 0.121749 -0.034090
					CHANNELS 3 Zrotation Yrotation Xrotation
					JOINT LeftArm
					{
						OFFSET 0.090977 0.030469 -0.008868
						CHANNELS 3 Zrotation Yrotation Xrotation
						JOINT LeftForeArm
						{
							OFFSET 0.259612 -0.012772 -0.027456
							CHANNELS 3 Zrotation Yrotation Xrotation
							JOINT LeftHand
							{
								OFFSET 0.249234 0.008986 -0.001171
								CHANNELS 3 Zrotation Yrotation Xrotation
								End Site
								{
									OFFSET 0.000000 0.000000 0.000000
								}
							}
						}
					}
				}
				JOINT RightShoulder
				{
					OFFSET -0.081759 0.118833 -0.038615
					CHANNELS 3 Zrotation Yrotation Xrotation
					JOINT RightArm
					{
						OFFSET -0.096012 0.032551 -0.009143
						CHANNELS 3 Zrotation Yrotation Xrotation
						JOINT RightForeArm
						{
							OFFSET -0.253742 -0.013329 -0.021401
							CHANNELS 3 Zrotation Yrotation Xrotation
							JOINT RightHand
							{
								OFFSET -0.255298 0.007772 -0.005559
								CHANNELS 3 Zrotation Yrotation Xrotation
								End Site
								{
									OFFSET 0.000000 0.000000 0.000000
								}
							}
						}
					}
				}
			}
		}
	}
}
MOTION
Frames: 16
Frame Time: 0.050000
0.000000 0.952041 0.000000 0.464191 2.706537 2.016686 5.520769 -0.840820 -15.678807 -4.997929 0.581490 25.709140 3.876555 8.984836 2.814283 0.000000 0.000000 0.000000 2.953047 0.237433 -2.424799 0.907313 0.102088 7.050444 -3.477797 -8.727524 -0.414385 0.000000 0.000000 0.000000 0.404968 -0.223892 4.848511 -1.278240 0.692303 -3.910106 -0.187874 -0.098937 11.724711 1.348714 0.420381 -16.281591 0.000000 0.000000 0.000000 -19.262943 0.809576 -2.401369 -50.883141 6.199258 -9.135390 -56.475274 -56.784036 35.301083 0.000000 0.000000 0.000000 12.092564 -4.963140 -3.076423 52.845319 -19.109087 -13.704673 81.789366 46.866057 43.560510 0.000000 0.000000 0.000000 
0.002872 0.950345 0.010982 0.561533 4.069642 2.739972 5.240951 -1.140953 -19.589644 -3.630399 -0.006541 26.485301 4.301830 9.448618 1.343853 0.000000 0.000000 0.000000 2.696937 0.113834 -1.407523 1.021700 0.041528 5.918563 -3.798090 -9.286373 -1.814689 0.000000 0.000000 0.000000 0.127572 -0.155454 3.613070 -0.643227 0.346410 -1.311505 -0.077010 -0.741165 9.527120 -0.375455 1.731272 -20.006608 0.000000 0.000000 0.000000 -18.439728 3.520968 -3.808444 -50.809794 5.597824 -8.668773 -60.109685 -56.019347 36.977675 0.000000 0.000000 0.000000 9.637014 -3.222611 -2.046024 53.948508 -17.971138 -13.318176 86.713456 46.871963 46.925319 0.000000 0.000000 0.000000 
0.007375 0.950881 0.023193 0.356516 3.667077 1.801517 5.554265 -1.152645 -21.041836 -1.452112 -0.514341 21.388306 1.852523 5.834898 4.872452 0.000000 0.000000 0.000000 2.583940 -0.065287 0.068453 1.015111 0.064049 6.658111 -3.066830 -7.485387 -1.284287 0.000000 0.000000 0.000000 0.922161 -0.270122 5.151449 -1.616985 0.849908 -3.907617 0.027769 1.370332 12.009729 0.810599 1.221703 -19.127848 0.000000 0.000000 0.000000 -16.236488 2.136747 -3.113201 -51.534805 5.808117 -9.101635 -66.254363 -57.375436 41.695188 0.000000 0.000000 0.000000 10.875412 -3.361932 -1.940117 53.335154 -15.153041 -12.103906 83.310289 48.872625 47.636899 0.000000 0.000000 0.000000 
0.013668 0.950325 0.037631 0.400223 3.086161 1.781229 5.195645 -1.239169 -21.968380 0.169841 -0.669780 15.479565 -0.553045 3.097182 9.331657 0.000000 0.000000 0.000000 2.133977 -0.158110 0.902521 1.079076 0.052784 6.418532 -2.770155 -6.755981 -1.060983 0.000000 0.000000 0.000000 0.950084 -0.257551 4.894824 -1.759465 0.890591 -2.982133 0.032853 1.887260 11.581386 1.101864 1.148687 -20.010062 0.000000 0.000000 0.000000 -15.908237 2.396823 -3.244263 -51.939744 4.834337 -8.725162 -70.018447 -57.834558 44.659378 0.000000 0.000000 0.000000 10.051915 -1.216339 -0.890292 52.880014 -10.735418 -10.104408 82.248039 50.553411 48.617560 0.000000 0.000000 0.000000 
0.021856 0.949219 0.054666 0.381188 1.820114 1.465391 5.257442 -1.160303 -21.839067 0.848461 -0.509025 9.432959 -2.030829 1.666185 12.436785 0.000000 0.000000 0.000000 1.740211 -0.272467 1.967726 0.771930 0.126814 6.796393 -2.736772 -6.465520 -1.525082 0.000000 0.000000 0.000000 0.521980 -0.273233 5.797700 -1.525467 0.787749 -3.668187 0.369069 3.620814 12.452482 0.910381 1.545915 -21.911645 0.000000 0.000000 0.000000 -15.289088 1.810147 -3.042697 -52.390837 3.886119 -8.476015 -72.527371 -58.930678 47.098510 0.000000 0.000000 0.000000 9.834208 0.205303 -0.093855 53.125373 -5.610231 -8.064067 76.315884 52.008634 46.266459 0.000000 0.000000 0.000000 
0.032125 0.945801 0.075002 0.220912 1.467188 0.918959 5.163536 -1.129217 -21.351882 1.388569 -0.313397 3.458971 -3.557597 -0.756631 12.786708 0.000000 0.000000 0.000000 1.594858 -0.528786 4.235435 0.195943 0.188698 5.718875 -2.844433 -6.173391 -3.130662 0.000000 0.000000 0.000000 0.395486 -0.297844 6.544217 -1.997076 0.993192 -3.698129 0.906589 4.126120 12.323973 1.534102 1.246799 -22.103890 0.000000 0.000000 0.000000 -14.832309 -0.081179 -2.102282 -52.596438 2.828707 -8.059852 -74.415215 -62.020285 51.185102 0.000000 0.000000 0.000000 9.603323 2.393327 0.933835 54.377437 -1.571858 -6.501161 72.862601 53.782099 45.573499 0.000000 0.000000 0.000000 
0.044585 0.941247 0.098632 -0.146925 0.023244 0.844357 5.155670 -1.047978 -20.987384 1.865335 -0.186223 -0.353925 -4.396316 -2.631922 12.147644 0.000000 0.000000 0.000000 0.925185 -0.660754 5.867584 -0.068636 0.224282 5.372674 -2.749974 -5.245394 -4.499084 0.000000 0.000000 0.000000 0.393291 -0.294156 6.556849 -2.195587 1.067046 -3.940480 1.061900 4.886008 12.672798 2.223080 0.866947 -22.179438 0.000000 0.000000 0.000000 -14.082976 -1.069186 -1.505742 -53.059589 1.397544 -7.572657 -74.956559 -63.428025 52.944159 0.000000 0.000000 0.000000 10.173172 3.866121 1.619583 53.957577 2.659072 -4.695616 70.008384 54.626697 44.319705 0.000000 0.000000 0.000000 
0.059539 0.935558 0.126044 -0.932404 -0.068870 1.373816 5.383132 -1.018603 -21.190691 1.190079 -0.084889 -1.013438 -4.700818 -3.252541 11.956498 0.000000 0.000000 0.000000 0.633211 -0.746917 6.873188 0.488089 0.139638 5.383732 -3.179820 -5.914215 -5.836891 0.000000 0.000000 0.000000 0.973036 -0.277552 5.357919 -2.559021 1.222733 -2.690393 1.238508 4.395931 12.023709 2.301730 0.705656 -21.707275 0.000000 0.000000 0.000000 -13.710538 -2.390869 -0.737675 -53.641767 -1.067270 -6.553626 -70.947633 -65.034677 51.354675 0.000000 0.000000 0.000000 11.314039 5.547075 2.344636 53.264766 5.774196 -3.310789 67.060912 54.640566 41.943198 0.000000 0.000000 0.000000 
0.076883 0.930758 0.156013 -1.529211 -1.375622 2.229004 5.203019 -1.005605 -21.378968 1.439543 -0.171517 0.250709 -4.882593 -2.888229 13.759557 0.000000 0.000000 0.000000 0.149725 -0.762551 7.572803 -0.055506 0.265047 6.247104 -2.807975 -4.329910 -6.518501 0.000000 0.000000 0.000000 1.031941 -0.224996 4.182351 -2.403294 1.140939 -2.366541 1.523160 4.164415 11.895019 2.180554 0.692748 -22.214461 0.000000 0.000000 0.000000 -14.974747 -3.463411 -0.169906 -53.944521 -3.143768 -5.638854 -64.874994 -67.100604 48.673288 0.000000 0.000000 0.000000 11.784970 7.583458 3.161511 52.549004 8.260412 -2.215409 65.496077 55.047400 40.744892 0.000000 0.000000 0.000000 
0.095898 0.928704 0.187000 -1.735580 -1.776734 2.722655 4.751976 -1.103664 -22.148299 0.959896 -0.247366 3.392317 -5.491196 -3.576531 14.546404 0.000000 0.000000 0.000000 -0.875219 -0.701960 8.089407 -0.219588 0.368492 7.922413 -3.021987 -5.403155 -5.453364 0.000000 0.000000 0.000000 0.644336 -0.181013 3.644239 -2.246666 1.066569 -2.070752 1.553873 3.153167 11.685541 2.457957 0.404264 -22.506854 0.000000 0.000000 0.000000 -15.676051 -5.098202 0.847007 -54.439938 -6.604543 -4.136941 -52.633681 -69.230177 41.166819 0.000000 0.000000 0.000000 12.539621 9.256546 3.768417 52.081318 10.379769 -1.288655 62.024175 54.967928 37.808641 0.000000 0.000000 0.000000 
0.114970 0.931419 0.217150 -1.823969 -1.943407 2.910598 3.725940 -1.292650 -22.338451 0.354635 -0.262495 6.306311 -4.926368 -3.019943 13.794563 0.000000 0.000000 0.000000 -1.686008 -0.553884 7.365423 -0.514661 0.578124 11.135054 -2.947348 -5.967732 -3.648273 0.000000 0.000000 0.000000 0.307242 -0.172658 3.837712 -2.217535 1.052139 -1.899608 1.626708 3.080594 11.090390 3.006253 0.118798 -22.849660 0.000000 0.000000 0.000000 -15.863392 -7.462643 2.049081 -55.338142 -10.162972 -2.493548 -40.272979 -68.808797 31.554660 0.000000 0.000000 0.000000 12.687781 10.132346 4.150559 52.362176 12.053038 -0.497778 56.269229 54.787777 33.816859 0.000000 0.000000 0.000000 
0.132680 0.936661 0.246039 -2.100490 -2.719064 3.149046 3.267220 -1.299240 -21.542207 0.218355 -0.258840 7.079781 -4.318536 -2.493032 12.946527 0.000000 0.000000 0.000000 -2.463847 -0.359001 5.955172 -0.266616 0.762146 15.466941 -2.994655 -7.212941 -0.708835 0.000000 0.000000 0.000000 0.049291 -0.159179 3.845341 -1.771132 0.844472 -2.101341 1.187707 2.509917 10.813510 3.038066 -0.026645 -22.710675 0.000000 0.000000 0.000000 -16.253078 -8.558027 2.812450 -55.641307 -12.586438 -1.356418 -33.376371 -68.265694 26.594773 0.000000 0.000000 0.000000 13.050062 11.716737 4.745830 52.683663 13.516751 0.197189 51.047356 54.374032 29.954020 0.000000 0.000000 0.000000 
0.148354 0.942643 0.273373 -2.232729 -4.261078 3.177366 2.809158 -1.213325 -19.570799 -0.129519 -0.176991 6.833962 -3.805184 -1.970890 12.634935 0.000000 0.000000 0.000000 -3.468355 -0.112280 3.854201 0.316947 0.941592 20.447420 -3.475148 -9.388487 2.354320 0.000000 0.000000 0.000000 -0.220110 -0.147439 3.955583 -2.160985 1.014524 -1.884410 1.517437 2.744551 9.987372 3.252562 -0.238627 -22.435410 0.000000 0.000000 0.000000 -15.974664 -9.700444 3.529508 -55.620110 -13.745388 -0.738076 -31.245475 -67.928991 25.075875 0.000000 0.000000 0.000000 13.439997 12.248624 4.867546 52.960635 14.321642 0.659712 47.087798 53.558424 26.847050 0.000000 0.000000 0.000000 
0.161653 0.947332 0.299382 -2.174972 -5.437773 3.087014 1.719794 -1.226374 -17.452523 0.031697 -0.197466 6.921471 -2.862682 -1.296727 10.696802 0.000000 0.000000 0.000000 -4.693571 0.115824 1.582177 2.325850 0.632036 24.644382 -4.274205 -11.492760 3.393519 0.000000 0.000000 0.000000 -1.007825 -0.108781 4.167947 -1.523164 0.715169 -2.342068 1.159588 2.594573 10.010334 3.327931 -0.437085 -21.763691 0.000000 0.000000 0.000000 -15.679256 -10.523719 4.125999 -54.800066 -14.797248 -0.286739 -28.436691 -67.938029 23.348497 0.000000 0.000000 0.000000 13.983135 14.119227 5.656006 52.732691 15.205321 1.058658 44.556081 54.627389 25.767369 0.000000 0.000000 0.000000 
0.172378 0.950406 0.323267 -2.158158 -6.641599 2.535595 0.884415 -1.133503 -14.611710 -0.100490 -0.157371 6.655727 -1.873881 0.011327 9.966942 0.000000 0.000000 0.000000 -5.638661 0.233796 0.435718 3.682460 0.414500 27.531344 -4.864745 -13.008742 4.299643 0.000000 0.000000 0.000000 -1.345459 -0.087645 4.076750 -1.761998 0.820797 -1.894344 1.561359 2.291818 9.890487 3.251724 -0.506886 -21.867981 0.000000 0.000000 0.000000 -15.626814 -11.719392 4.967045 -53.514559 -15.165076 -0.179811 -26.672371 -67.440623 22.187642 0.000000 0.000000 0.000000 14.141767 14.487384 5.615620 52.467884 16.121463 1.485744 45.243899 54.899835 26.006561 0.000000 0.000000 0.000000 
0.180870 0.952675 0.344224 -2.387891 -7.715200 2.141785 0.652485 -1.050029 -13.220369 -0.050319 -0.179297 7.864502 -1.143480 0.847618 8.962599 0.000000 0.000000 0.000000 -5.492040 0.315503 -1.312519 5.195221 0.090161 29.773308 -6.677179 -17.086847 6.190339 0.000000 0.000000 0.000000 -1.760751 -0.070033 4.304389 -1.717984 0.797161 -1.746454 1.809274 0.809358 10.241701 1.940467 -0.067575 -21.646208 0.000000 0.000000 0.000000 -15.329235 -11.291351 5.232817 -52.478100 -15.603959 -0.129664 -18.272203 -67.543631 17.113478 0.000000 0.000000 0.000000 13.619600 16.282080 6.006946 52.917487 16.826678 1.843006 46.812472 56.728541 27.335116 0.000000 0.000000 0.000000 
